<?xml version="1.0" standalone="no"?>
<!DOCTYPE svg PUBLIC "-//W3C//DTD SVG 20010904//EN"
 "http://www.w3.org/TR/2001/REC-SVG-20010904/DTD/svg10.dtd">
<svg version="1.0" xmlns="http://www.w3.org/2000/svg"
 width="250.000000pt" height="250.000000pt" viewBox="0 0 250.000000 250.000000"
 preserveAspectRatio="xMidYMid meet">
<metadata>
Created by potrace 1.15, written by Peter Selinger 2001-2017
</metadata>
<g transform="translate(0.000000,250.000000) scale(0.100000,-0.100000)"
fill="#4767AA" stroke="none">
<path d="M63 2480 c-67 -41 -63 42 -63 -1241 l0 -1161 39 -39 39 -39 626 0
626 0 0 485 0 485 -160 0 -160 0 0 190 0 190 159 0 158 0 6 193 c5 199 15 255
57 342 50 103 158 186 285 220 62 16 298 21 389 9 l46 -7 0 -167 0 -167 -137
-5 c-226 -7 -236 -19 -241 -255 l-4 -163 186 0 c171 0 186 -1 185 -17 0 -10
-10 -94 -22 -188 l-23 -170 -162 -3 -162 -2 0 -485 0 -485 346 0 346 0 39 39
39 39 0 1172 0 1172 -39 39 -39 39 -1163 0 c-1137 0 -1165 -1 -1196 -20z"/>
</g>
</svg>
